<svg xmlns="http://www.w3.org/2000/svg" viewBox="0 0 344.48 415.12"><defs><style>.cls-1{fill:#b58765;}.cls-2{fill:#fef3df;}.cls-3,.cls-9{fill:#3d5263;}.cls-4{fill:#fff;}.cls-5{fill:#f1f2f2;}.cls-6{fill:#f9e82d;}.cls-7{fill:#5a3620;}.cls-8{fill:#edd514;fill-opacity:0.89;}.cls-9{opacity:0.1;isolation:isolate;}</style></defs><g id="Layer_2" data-name="Layer 2"><g id="Layer_1-2" data-name="Layer 1"><g id="cream"><path id="path48" class="cls-1" d="M309.74,235.57c1.08-6.51,3.76-8.86,4.24-10.9-26.87,17.22-16.41,36-10.82,41.8a23.25,23.25,0,0,0,2,1.87s21.6,11.54,37-15.75c-3,.52-7.3,5-9.52,3.84,13.3-14.78,13.44-35.21,9.87-44.21C341.71,224.77,319.33,228.91,309.74,235.57Z"/><path id="path52" class="cls-2" d="M253.43,129.81c-14.82-3.58-28.12,3-36.69,9.09a113.1,113.1,0,0,1,17.69,20.9C251.07,147,253.43,129.81,253.43,129.81Z"/><path id="path54" class="cls-2" d="M136.79,230.94c-40.56,0-73.42,21.51-73.42,48,0,.54,0,1.08.06,1.62s.06,1,.1,1.44A88.83,88.83,0,0,0,129.05,311c33.34,0,62.44-18.52,78-46-9.18-19.69-37.14-34-70.22-34ZM93,282.1a10.54,10.54,0,1,1,10.54-10.54A10.54,10.54,0,0,1,93,282.1Zm87.86,0a10.54,10.54,0,1,1,10.55-10.54A10.54,10.54,0,0,1,180.84,282.1Z"/><path id="path56" class="cls-1" d="M84.33,87c-17,15.33-.14,38.8,0,39a111.73,111.73,0,0,1,32.58-9.82C95,113,84.33,87,84.33,87Z"/><path id="path58" class="cls-1" d="M191.11,87s-10.17,24.8-31.12,28.92a112,112,0,0,1,31.9,8.91C195,119.93,205.94,100.39,191.11,87Z"/><path class="cls-2" d="M55.77,147.14a113.11,113.11,0,0,0-11,14.78c-1.43,2.28-2.77,4.62-4,7-.37.7-.73,1.39-1.08,2.1C21.16,165.26,13.8,151.7,13.8,151.7,26,141.28,42.66,141.07,55.77,147.14Z"/></g><g id="grey"><path id="path6" class="cls-3" d="M63.43,280.6c.07-19-.67-16.16-3.42-36.77,2.09-21-7.15-36.4-7.18-54.64,0-4.42-5.44-6.35-4.46-10.44A93.29,93.29,0,0,0,63.53,282c0-.48-.07-1-.1-1.44Z"/></g><g id="brown"><path id="path67" d="M13.8,151.7c12.64-10.85,30.24-10.63,43.58-3.79,3.29-6.51,8.61-7.66,13.11-13.45C35.25,101.74,0,141.57,0,141.57c6.38,27.82,26.89,35.63,44.28,38.94q.61-4,1.52-7.94C22.79,168.26,13.8,151.7,13.8,151.7Z"/><path class="cls-4" d="M221.26,212.28c0-46.5-36.19-78.06-80.19-83.95a.81.81,0,0,0,0-.15,106.19,106.19,0,0,0-12-.69c-35.4,0-66,20.9-80.68,51.26a54.48,54.48,0,0,0-1.5,12.75c0,1.36.08,2.61.11,3.91.12,3.69.42,7.11.8,10.43,4,23.38,7.45,39.8,12.61,62.53,0,.38.15.75.21,1.13a60.26,60.26,0,0,0,2.83,11.1c0-.54-.06-1.08-.06-1.62,0-26.53,32.86-48,73.42-48,33.08,0,61.05,14.32,70.22,34a92.42,92.42,0,0,0,8.12-19.2h0C217.61,237.36,221.26,221.5,221.26,212.28ZM96.38,202.92a11.82,11.82,0,1,1,11.81-11.81A11.81,11.81,0,0,1,96.38,202.92Zm86.05-23.63a11.82,11.82,0,1,1-11.82,11.82A11.82,11.82,0,0,1,182.43,179.29Z"/><path id="path65" class="cls-5" d="M302.91,259c-20.45,13.64-7.06,45.38-13.33,65.85,0,0-4.69,16.13-24.47,21.36v26.36c17-8.5,33.48-24,36.22-36.09,9.58-29.15-4.41-64,8.41-71.8C304.58,261,303.42,260.64,302.91,259Z"/><path id="path69" d="M198.7,125.27a113.27,113.27,0,0,1,18,13.63c8.57-6.13,21.87-12.67,36.69-9.09,0,0-2.36,17.17-19,30,1.53,2.32,3,4.71,4.33,7.15,14.18-9.16,27.25-24.85,24.39-51.23C263.15,115.72,221.8,99,198.7,125.27Z"/></g><path class="cls-6" d="M171.6,113.36c-.84-.25-1.69-.49-2.55-.7h0a110.49,110.49,0,0,0-14.73-2.86,113.87,113.87,0,0,0-29.91.24,110.56,110.56,0,0,0-16.16,3.53c-1.06.31-2.12.63-3.16,1l2.25-1.41,32.37-20.4,30.14,19.48Z"/><path class="cls-7" d="M182.43,202.92a11.82,11.82,0,1,1,11.81-11.81A11.82,11.82,0,0,1,182.43,202.92Z"/><path class="cls-7" d="M96.38,202.92a11.82,11.82,0,1,1,11.81-11.81A11.81,11.81,0,0,1,96.38,202.92Z"/><g id="yellow"><path id="path9" class="cls-6" d="M249.68,249.85l-.53.42a112.78,112.78,0,0,1-75,78.67l10.26,8.63,49.91,41.95L264,404.4a16.7,16.7,0,0,0,1.15-6.06V382.55h0V237.49l-15.43,12.36Z"/><path id="path11" class="cls-6" d="M32.6,254.63l-6.16-4.89L11,237.49V398.32a16.61,16.61,0,0,0,1.16,6.08l54.69-45.59,25.25-21.06,11.6-9.66A112.87,112.87,0,0,1,32.6,254.63Z"/><path id="path13" class="cls-8" d="M234.35,379.52l-49.91-41.95-10.26-8.63a113.08,113.08,0,0,1-70.45-.85l-11.6,9.66L66.88,358.81l-54.69,45.6a16.8,16.8,0,0,0,15.65,10.71H248.3A16.8,16.8,0,0,0,264,404.4l-29.6-24.88Z"/></g><g id="white"><path id="path21" class="cls-4" d="M61.88,140.7c-1.68,1.64-3.31,3.32-4.89,5.06l-.12.13c-.22.24-.45.48-.66.72l.15-.15A112.59,112.59,0,0,1,220.06,301a112.17,112.17,0,0,0,32.79-79.41h0A112.07,112.07,0,0,0,238.76,167c-1.36-2.44-2.8-4.83-4.33-7.15a113.16,113.16,0,0,0-35.73-34.53,112.09,112.09,0,0,0-44.39-15.47,113.87,113.87,0,0,0-29.91.24,111.73,111.73,0,0,0-32.58,9.82A113.1,113.1,0,0,0,61.88,140.7Z"/><path id="path23" class="cls-4" d="M100.78,191.9a4.34,4.34,0,1,0-4.34-4.34A4.34,4.34,0,0,0,100.78,191.9Z"/><path id="path25" class="cls-4" d="M186,191.9a4.34,4.34,0,1,0-4.33-4.34A4.34,4.34,0,0,0,186,191.9Z"/></g><g id="grey-2" data-name="grey"><path id="path16" class="cls-9" d="M234.35,379.52c-38.82,3.76-107.77,5.22-167.47-20.71C46.7,350.05,27.58,338.16,11,322.17v76.15a16.86,16.86,0,0,0,16.81,16.8H248.3a16.84,16.84,0,0,0,16.8-16.78v-23s-11.78,2.38-30.75,4.21Z"/><path id="path18" class="cls-9" d="M92.13,337.75a112.58,112.58,0,0,0,157.55-87.9l-.53.42A112.62,112.62,0,0,1,32.6,254.63l-6.16-4.89A112.71,112.71,0,0,0,92.13,337.75Z"/></g><g id="grey-3" data-name="grey"><g id="g28"><path id="path30" class="cls-5" d="M220.55,300.41a112.59,112.59,0,0,0-164.19-154,112.53,112.53,0,0,0-11.62,15.46c-1.43,2.28-2.78,4.62-4,7a112.23,112.23,0,0,0-13,52.63q0,5.41.5,10.69a112.54,112.54,0,0,0,190.69,69.92c.5-.49,1.7-1.75,1.7-1.75Zm-5.42-54.66A92.42,92.42,0,0,1,207,265c-15.52,27.51-44.62,46-78,46A88.83,88.83,0,0,1,63.53,282,93.29,93.29,0,0,1,48.37,178.75c14.65-30.36,45.28-51.26,80.69-51.26a88.4,88.4,0,0,1,11,.69C184.5,133.7,219,172.36,219,219.24A93.4,93.4,0,0,1,215.13,245.75Z"/></g><path id="path32" class="cls-5" d="M57,145.76l-.12.13Z"/></g><g id="darkbrown"><path id="path35" class="cls-7" d="M252.32,232.5a112.32,112.32,0,0,1-2.23,13.95c-.29,1.28-.61,2.56-.94,3.82l.53-.42,15.42-12.36v0l-12.78-5Z"/><path id="path37" class="cls-7" d="M11,237.49l15.41,12.25,6.16,4.89a111.85,111.85,0,0,1-4.44-22.39l-2.67.81L11,237.47"/><path id="path39" class="cls-7" d="M93,261a10.54,10.54,0,1,0,10.54,10.54A10.53,10.53,0,0,0,93,261Z"/><path id="path41" class="cls-7" d="M180.84,261a10.54,10.54,0,1,0,10.55,10.54A10.53,10.53,0,0,0,180.84,261Z"/></g><path d="M63.37,279c0,.55,0,1.08.06,1.63A60.36,60.36,0,0,1,60.6,269.5c-.06-.38-.16-.75-.21-1.13-4.83-21.26-8.14-37-11.83-58.07,1.5-2.35,4.07-4.24,8.38-4.66,16.26-1.59,10.26,15.06,18.6,19.49s15.13.39,18.53,10.18a13.67,13.67,0,0,1,.73,4.26C75.8,248.25,63.37,262.67,63.37,279Z"/><path d="M220.21,223.27a193.49,193.49,0,0,1-5.08,22.48A92.19,92.19,0,0,1,207,265c-4.17-8.93-12.2-16.76-22.83-22.66.94-4.39,3-8.33,7.31-8.29,1.34,0,2.55.06,3.63.11l2.53.09c4.81.12,6.62-.56,8.55-7.06C208,221.17,214.9,221.81,220.21,223.27Z"/><path d="M141.07,128.32s0-.09,0-.14a106.07,106.07,0,0,0-12-.68c-1,0-2,0-2.94,0-5.23,14.93,3.56,27.73,16.32,33.7A36.67,36.67,0,0,0,146,162.7l.46.16c14.05,4.72,10.48,18.38,15.69,31.24,6,14.83,31.29,18.78,44,10.84,7.4-4.63,10.84-9.85,12.4-14.11C209.29,156.19,177.92,133.24,141.07,128.32Zm41.36,74.6a11.82,11.82,0,1,1,11.81-11.81A11.82,11.82,0,0,1,182.43,202.92Z"/><path d="M304.93,308.62c.07,9.19-.63,18.82-3.61,27.9a28.33,28.33,0,0,1-3.87,8.7,7.83,7.83,0,0,1-1.06-5c.62-6.26-2.7-11.74-7-11.35a6.59,6.59,0,0,1-1.54,0,23.22,23.22,0,0,0,1.73-4c2.91-9.5,1.59-21.42,1.38-32.83,2.45,1.28,5.31,3.67,5.44,7.88C296.61,307,299.77,310,304.93,308.62Z"/><path d="M284.49,359.67A98.66,98.66,0,0,1,273,368.15a8.68,8.68,0,0,1-6.52-8.28,9,9,0,0,1,18-.2Z"/><path class="cls-3" d="M159.55,0H112.86A10.76,10.76,0,0,0,102.1,10.76v36a10.76,10.76,0,0,0,10.76,10.76H117v10.7l13.37-10.7h29.21a10.76,10.76,0,0,0,10.76-10.76v-36A10.76,10.76,0,0,0,159.55,0Z"/><path class="cls-4" d="M153.31,39.35h4.58a15.58,15.58,0,0,1-6.6,6.83A25.16,25.16,0,0,1,138.88,49a29,29,0,0,1-12.25-2.39A16.17,16.17,0,0,1,119,39.55a21.11,21.11,0,0,1-2.51-10.17,23.05,23.05,0,0,1,2.85-11.25,18.89,18.89,0,0,1,7.82-7.82A24,24,0,0,1,138.47,7.7a21.27,21.27,0,0,1,9.62,2.1,15,15,0,0,1,6.44,6,16.74,16.74,0,0,1,2.22,8.47,15.93,15.93,0,0,1-3.37,9.91,13,13,0,0,1-10.85,5.58,4.71,4.71,0,0,1-2.69-.62,3,3,0,0,1-1.2-1.83,8.14,8.14,0,0,1-5.84,2.45,7.85,7.85,0,0,1-5.92-2.46,9.07,9.07,0,0,1-2.36-6.54,16.06,16.06,0,0,1,2.84-9.22q3.44-5.07,8.81-5.07a6.2,6.2,0,0,1,5.65,2.93l.54-2.39H148l-3.25,15.41a12.43,12.43,0,0,0-.3,1.89,1.18,1.18,0,0,0,.25.8.76.76,0,0,0,.59.27A4.86,4.86,0,0,0,148,34.12a11.74,11.74,0,0,0,3.54-4.38,12.75,12.75,0,0,0,1.35-5.69,11.58,11.58,0,0,0-3.82-8.84q-3.83-3.56-10.68-3.56A19.14,19.14,0,0,0,128.51,14a15.08,15.08,0,0,0-6.1,6.68,20.58,20.58,0,0,0-2,9,15.48,15.48,0,0,0,2.28,8.25,13.37,13.37,0,0,0,6.43,5.42,27.47,27.47,0,0,0,18.29.28A13.69,13.69,0,0,0,153.31,39.35Zm-23.22-8.83a6.06,6.06,0,0,0,1.11,4,3.45,3.45,0,0,0,2.73,1.29,4.62,4.62,0,0,0,2.3-.6,5.72,5.72,0,0,0,1.61-1.35,11.17,11.17,0,0,0,2-3.83,15,15,0,0,0,.83-4.68,5.54,5.54,0,0,0-1.13-3.73,3.63,3.63,0,0,0-2.85-1.3,5,5,0,0,0-3.41,1.43,8.75,8.75,0,0,0-2.37,4.07A16.46,16.46,0,0,0,130.09,30.52Z"/><path class="cls-3" d="M256.23,34.11H212.69a10,10,0,0,0-10,10V77.71a10,10,0,0,0,10,10h3.83v10l12.47-10h27.24a10,10,0,0,0,10-10V44.14A10,10,0,0,0,256.23,34.11Z"/><path class="cls-4" d="M252,76.14H217.89a1.5,1.5,0,0,1-1.5-1.5V52.14A1.5,1.5,0,0,1,218.83,51L235,64l16.13-13a1.5,1.5,0,0,1,2.44,1.17v22.5A1.5,1.5,0,0,1,252,76.14Zm-32.64-3h31.14V55.28L235.9,67.08a1.5,1.5,0,0,1-1.88,0l-14.63-11.8Z"/><path class="cls-4" d="M217.89,76.14a1.5,1.5,0,0,1-1.09-2.53l12.12-12.73A1.5,1.5,0,1,1,231.09,63L219,75.68A1.54,1.54,0,0,1,217.89,76.14Z"/><path class="cls-4" d="M252,76.14a1.5,1.5,0,0,1-1.09-.46L238.83,63A1.5,1.5,0,0,1,241,60.88l12.12,12.73a1.49,1.49,0,0,1-.06,2.12A1.51,1.51,0,0,1,252,76.14Z"/><path class="cls-4" d="M239.91,55.5a1.5,1.5,0,0,1-1.21-.62L235,49.71l-3.74,5.17a1.5,1.5,0,1,1-2.43-1.76l5-6.85a1.56,1.56,0,0,1,2.44,0l4.95,6.85a1.51,1.51,0,0,1-.34,2.1A1.49,1.49,0,0,1,239.91,55.5Z"/></g></g></svg>